<svg width="39" height="40" viewBox="0 0 39 40" fill="none" xmlns="http://www.w3.org/2000/svg">
<g clip-path="url(#clip0)">
<path d="M38.2231 7.73364C37.8691 4.41714 35.2499 1.79729 31.9331 1.44362C23.6154 0.555901 15.2735 0.555901 6.9561 1.44362C3.63931 1.79759 1.01975 4.41714 0.665792 7.73364C-0.221931 16.051 -0.221931 24.3933 0.665792 32.7106C1.01975 36.0274 3.63931 38.647 6.9558 39.0009C15.2732 39.8887 23.6154 39.8887 31.9331 39.0009C35.2499 38.647 37.8691 36.0274 38.2231 32.7106C39.1108 24.3933 39.1108 16.0513 38.2231 7.73364Z" fill="url(#paint0_radial)"/>
<path d="M36.1078 9.14014C35.7939 6.19719 33.4695 3.87256 30.5263 3.55835C23.1456 2.77091 15.743 2.77091 8.36231 3.55835C5.41936 3.87256 3.09472 6.19719 2.78052 9.14014C1.99308 16.5208 1.99308 23.9235 2.78052 31.3038C3.09472 34.2471 5.41936 36.5717 8.36231 36.8856C15.743 37.6734 23.1456 37.6734 30.526 36.8856C33.4693 36.5717 35.7939 34.2471 36.1078 31.3038C36.8955 23.9235 36.8955 16.5208 36.1078 9.14014Z" fill="url(#paint1_linear)"/>
<path d="M0.58252 31.9043C0.609222 32.1731 0.636815 32.4419 0.665595 32.7107C1.01956 36.0272 3.63911 38.6468 6.9559 39.0007C15.2733 39.8885 23.6155 39.8885 31.9329 39.0007C35.2497 38.6468 37.8689 36.0272 38.2229 32.7107C38.2517 32.4419 38.2793 32.1731 38.3063 31.9043H0.58252Z" fill="url(#paint2_linear)"/>
<path d="M38.2232 32.7105C38.7003 28.2413 38.9205 23.765 38.8849 19.2893L29.9958 10.4003C28.8852 9.13246 27.2632 8.34117 25.3572 8.27263C21.4375 8.1314 17.5053 8.13852 13.5851 8.27322C10.3291 8.38538 8.05223 10.5738 7.46832 13.7903C7.36537 14.3582 7.30365 14.9335 7.22266 15.5056V24.9352C7.26746 25.2408 7.33332 25.5449 7.3538 25.8523C7.48434 27.8088 8.2884 29.4845 9.57577 30.6182L18.6215 39.6636C23.0607 39.6948 27.5002 39.4741 31.9332 39.0008C35.25 38.6469 37.8693 36.0273 38.2232 32.7105Z" fill="url(#paint3_linear)"/>
<path d="M38.2229 32.7109C37.8692 36.0271 35.249 38.6472 31.9328 39.0009C27.5005 39.4738 23.0601 39.6949 18.6215 39.6637L9.58936 30.6316C10.6364 31.5481 12.0012 32.1062 13.585 32.1658C17.5044 32.313 21.4374 32.3091 25.3568 32.1679C28.9018 32.0397 31.467 29.416 31.5777 25.8711C31.6958 22.1072 31.6958 18.3334 31.5777 14.5695C31.5273 12.9341 30.9531 11.4951 30.0013 10.4062L38.8848 19.2897C38.9198 23.7648 38.6997 28.2417 38.2229 32.7109Z" fill="url(#paint4_linear)"/>
<path d="M24.0335 16.0115C22.8947 14.7716 21.2608 13.9937 19.4447 13.9937C16.0048 13.9937 13.2158 16.7826 13.2158 20.2225C13.2158 22.0386 13.9938 23.6726 15.2337 24.8113L29.6452 39.2228C30.408 39.1564 31.1708 39.0825 31.9331 39.0012C35.2499 38.6472 37.8694 36.0277 38.2234 32.7109C38.3047 31.9487 38.3785 31.1859 38.445 30.423L24.0335 16.0115Z" fill="url(#paint5_linear)"/>
<path d="M38.8136 24.4115L27.2151 12.8132C26.9445 12.4581 26.5181 12.2275 26.0372 12.2275C25.2189 12.2275 24.5552 12.891 24.5552 13.7095C24.5552 14.1905 24.7857 14.6169 25.1409 14.8874L38.6062 28.3531C38.6976 27.0396 38.7667 25.7255 38.8136 24.4115Z" fill="url(#paint6_linear)"/>
<path d="M7.22266 15.5056C7.30365 14.9335 7.36537 14.3582 7.46832 13.7903C8.05193 10.5738 10.3291 8.38538 13.5851 8.27322C17.5053 8.13852 21.4375 8.1314 25.3572 8.27263C28.9009 8.40021 31.4674 11.0242 31.5781 14.5692C31.6958 18.3334 31.6958 22.1068 31.5781 25.871C31.4674 29.416 28.9018 32.0397 25.3575 32.1676C21.4378 32.3091 17.5047 32.3126 13.5854 32.1655C10.041 32.0323 7.59086 29.4023 7.3538 25.852C7.33332 25.5449 7.26746 25.2405 7.22266 24.9349C7.22266 21.7917 7.22266 18.6485 7.22266 15.5056ZM19.4478 30.0666C21.2417 30.0666 23.0373 30.1203 24.8288 30.0542C27.6376 29.95 29.3653 28.2737 29.4308 25.4675C29.5121 21.9709 29.5121 18.4696 29.4308 14.9727C29.3653 12.1671 27.6364 10.4516 24.8288 10.3919C21.2651 10.3166 17.6976 10.3172 14.134 10.3919C11.3477 10.4504 9.61494 12.1312 9.53928 14.9059C9.44315 18.4467 9.44315 21.9938 9.53928 25.5346C9.61494 28.309 11.3477 29.9509 14.1343 30.0542C15.9032 30.12 17.6765 30.0666 19.4478 30.0666Z" fill="url(#paint7_linear)"/>
<path d="M7.22266 15.5056C7.30365 14.9335 7.36537 14.3582 7.46832 13.7903C8.05193 10.5738 10.3291 8.38538 13.5851 8.27322C17.5053 8.13852 21.4375 8.1314 25.3572 8.27263C28.9009 8.40021 31.4674 11.0242 31.5781 14.5692C31.6958 18.3334 31.6958 22.1068 31.5781 25.871C31.4674 29.416 28.9018 32.0397 25.3575 32.1676C21.4378 32.3091 17.5047 32.3126 13.5854 32.1655C10.041 32.0323 7.59086 29.4023 7.3538 25.852C7.33332 25.5449 7.26746 25.2405 7.22266 24.9349C7.22266 21.7917 7.22266 18.6485 7.22266 15.5056ZM19.4478 30.0666C21.2417 30.0666 23.0373 30.1203 24.8288 30.0542C27.6376 29.95 29.3653 28.2737 29.4308 25.4675C29.5121 21.9709 29.5121 18.4696 29.4308 14.9727C29.3653 12.1671 27.6364 10.4516 24.8288 10.3919C21.2651 10.3166 17.6976 10.3172 14.134 10.3919C11.3477 10.4504 9.61494 12.1312 9.53928 14.9059C9.44315 18.4467 9.44315 21.9938 9.53928 25.5346C9.61494 28.309 11.3477 29.9509 14.1343 30.0542C15.9032 30.12 17.6765 30.0666 19.4478 30.0666Z" fill="white"/>
<path d="M19.4447 13.9937C16.0048 13.9937 13.2158 16.7823 13.2158 20.2222C13.2158 23.6625 16.0048 26.4511 19.4447 26.4511C22.8849 26.4511 25.6736 23.6625 25.6736 20.2222C25.6736 16.7823 22.8849 13.9937 19.4447 13.9937ZM19.4447 24.3066C17.1889 24.3066 15.3604 22.478 15.3604 20.2222C15.3604 17.9664 17.1889 16.1379 19.4447 16.1379C21.7005 16.1379 23.5291 17.9664 23.5291 20.2222C23.5291 22.478 21.7005 24.3066 19.4447 24.3066Z" fill="white"/>
<path d="M27.5189 13.7095C27.5189 14.5278 26.8555 15.1913 26.0372 15.1913C25.2189 15.1913 24.5552 14.5278 24.5552 13.7095C24.5552 12.891 25.2189 12.2275 26.0372 12.2275C26.8555 12.2275 27.5189 12.891 27.5189 13.7095Z" fill="white"/>
</g>
<defs>
<radialGradient id="paint0_radial" cx="0" cy="0" r="1" gradientUnits="userSpaceOnUse" gradientTransform="translate(7.972 34.7636) scale(42.8876)">
<stop stop-color="#FAE100"/>
<stop offset="0.0544" stop-color="#FADC04"/>
<stop offset="0.1167" stop-color="#FBCE0E"/>
<stop offset="0.1829" stop-color="#FCB720"/>
<stop offset="0.2514" stop-color="#FE9838"/>
<stop offset="0.3054" stop-color="#FF7950"/>
<stop offset="0.4922" stop-color="#FF1C74"/>
<stop offset="1" stop-color="#6C1CD1"/>
</radialGradient>
<linearGradient id="paint1_linear" x1="14.9153" y1="17.6746" x2="-50.9671" y2="-19.3843" gradientUnits="userSpaceOnUse">
<stop stop-color="#A1B5D8" stop-opacity="0"/>
<stop offset="0.3094" stop-color="#90A2BD" stop-opacity="0.309804"/>
<stop offset="0.7554" stop-color="#7C8B9C" stop-opacity="0.756863"/>
<stop offset="1" stop-color="#748290"/>
</linearGradient>
<linearGradient id="paint2_linear" x1="19.4443" y1="35.1067" x2="19.4443" y2="41.1685" gradientUnits="userSpaceOnUse">
<stop stop-color="#FAE100" stop-opacity="0"/>
<stop offset="0.3068" stop-color="#FCA800" stop-opacity="0.305882"/>
<stop offset="0.6275" stop-color="#FE7300" stop-opacity="0.627451"/>
<stop offset="0.8685" stop-color="#FF5200" stop-opacity="0.866667"/>
<stop offset="1" stop-color="#FF4500"/>
</linearGradient>
<linearGradient id="paint3_linear" x1="17.2322" y1="17.9548" x2="7.60781" y2="8.33038" gradientUnits="userSpaceOnUse">
<stop stop-color="#833AB4" stop-opacity="0"/>
<stop offset="1" stop-color="#833AB4"/>
</linearGradient>
<linearGradient id="paint4_linear" x1="26.6523" y1="36.3465" x2="21.8486" y2="13.7006" gradientUnits="userSpaceOnUse">
<stop stop-color="#833AB4" stop-opacity="0"/>
<stop offset="1" stop-color="#833AB4"/>
</linearGradient>
<linearGradient id="paint5_linear" x1="28.4807" y1="29.2585" x2="9.18633" y2="9.96415" gradientUnits="userSpaceOnUse">
<stop stop-color="#833AB4" stop-opacity="0"/>
<stop offset="1" stop-color="#833AB4"/>
</linearGradient>
<linearGradient id="paint6_linear" x1="29.9116" y1="17.5839" x2="23.5314" y2="11.2037" gradientUnits="userSpaceOnUse">
<stop stop-color="#833AB4" stop-opacity="0"/>
<stop offset="1" stop-color="#833AB4"/>
</linearGradient>
<linearGradient id="paint7_linear" x1="27.166" y1="12.5545" x2="11.4346" y2="28.2859" gradientUnits="userSpaceOnUse">
<stop stop-color="#833AB4"/>
<stop offset="0.0922" stop-color="#9C3495"/>
<stop offset="0.2927" stop-color="#DC2546"/>
<stop offset="0.392" stop-color="#FD1D1D"/>
<stop offset="0.5589" stop-color="#FC6831"/>
<stop offset="0.6887" stop-color="#FC9B40"/>
<stop offset="0.7521" stop-color="#FCAF45"/>
<stop offset="0.7806" stop-color="#FDB750"/>
<stop offset="0.8656" stop-color="#FECB6A"/>
<stop offset="0.9415" stop-color="#FFD87A"/>
<stop offset="1" stop-color="#FFDC80"/>
</linearGradient>
<clipPath id="clip0">
<rect y="0.777832" width="38.8889" height="38.8889" fill="white"/>
</clipPath>
</defs>
</svg>
