<svg width="40" height="40" viewBox="0 0 40 40" fill="none" xmlns="http://www.w3.org/2000/svg">
<g clip-path="url(#clip0)">
<path d="M19.7779 0.777832C9.03899 0.777832 0.333496 9.48332 0.333496 20.2223C0.333496 30.9612 9.03899 39.6667 19.7779 39.6667C30.5169 39.6667 39.2224 30.9612 39.2224 20.2223C39.2224 9.48332 30.5169 0.777832 19.7779 0.777832Z" fill="#40B3E0"/>
<path d="M29.2391 11.963L25.766 29.4735C25.766 29.4735 25.2804 30.6879 23.9446 30.105L15.9302 23.9606L13.0159 22.5521L8.11016 20.9005C8.11016 20.9005 7.35729 20.6334 7.28438 20.0506C7.21146 19.4677 8.13446 19.152 8.13446 19.152L27.636 11.5018C27.636 11.5018 29.239 10.7976 29.239 11.9634" fill="white"/>
<path d="M15.3145 29.2766C15.3145 29.2766 15.0806 29.2547 14.7889 28.3317C14.4977 27.4089 13.0161 22.5517 13.0161 22.5517L24.7949 15.0717C24.7949 15.0717 25.475 14.6588 25.4507 15.0717C25.4507 15.0717 25.5721 15.1446 25.2076 15.4846C24.8435 15.8247 15.9548 23.8147 15.9548 23.8147" fill="#D2E5F1"/>
<path d="M19.0033 26.3163L15.8334 29.2065C15.8334 29.2065 15.5855 29.3946 15.3145 29.2767L15.9215 23.9082" fill="#B5CFE4"/>
</g>
<defs>
<clipPath id="clip0">
<rect x="0.333496" y="0.777832" width="38.8889" height="38.8889" fill="white"/>
</clipPath>
</defs>
</svg>
