<svg width="36" height="41" viewBox="0 0 36 41" fill="none" xmlns="http://www.w3.org/2000/svg">
<g clip-path="url(#clip0)">
<path d="M18.1108 4.375C15.8017 4.375 8.77459 4.375 4.88959 7.92225C2.57609 10.227 1.48584 13.5573 1.48584 18.375V21C1.48584 25.8178 2.57609 29.148 4.91671 31.479C6.08221 32.5421 7.67121 33.3918 9.61371 33.9789L10.2358 34.1661V38.8281C10.2358 39.375 10.3942 39.375 10.4467 39.375C10.5543 39.375 10.7267 39.3409 11.054 39.0504C11.1327 38.9725 11.7102 38.3477 14.519 35.2013L14.8025 34.8836L15.2268 34.9107C16.1675 34.9694 17.1378 35 18.1108 35C20.42 35 27.4471 35 31.3321 31.4519C33.6447 29.1471 34.7358 25.8169 34.7358 21V18.375C34.7358 13.5573 33.6456 10.227 31.305 7.896C27.4471 4.375 20.42 4.375 18.1108 4.375Z" fill="white"/>
<path d="M26.381 25.2472C25.4089 24.4282 24.96 24.1806 23.6178 23.3747C23.0586 23.0396 22.2064 22.75 21.7593 22.75C21.4539 22.75 21.0881 22.9836 20.8641 23.2076C20.2901 23.7816 20.102 24.5 19.0958 24.5C18.1114 24.5 16.392 23.4981 15.1583 22.2031C13.8633 20.9694 12.8614 19.25 12.8614 18.2656C12.8614 17.2594 13.5666 17.0581 14.1406 16.4832C14.3646 16.2601 14.6114 15.8944 14.6114 15.589C14.6114 15.1419 14.3218 14.3027 13.9866 13.7436C13.1808 12.4005 12.934 11.9516 12.1141 10.9804C11.8368 10.6514 11.5209 10.5009 11.1901 10.5C10.631 10.4991 9.89689 10.7765 9.39989 11.1466C8.65264 11.704 7.87126 12.4626 7.66214 13.4076C7.63414 13.5362 7.61751 13.6657 7.61226 13.7952C7.57201 14.7796 7.95876 15.7789 8.37614 16.625C9.35876 18.6191 10.659 20.5494 12.0739 22.2731C12.5263 22.8244 13.0189 23.3371 13.529 23.8324C14.0243 24.3416 14.537 24.8342 15.0883 25.2875C16.812 26.7024 18.7423 28.0026 20.7364 28.9852C21.5746 29.3982 22.5616 29.778 23.5364 29.75C23.6755 29.7456 23.8146 29.7299 23.9538 29.6992C24.8988 29.491 25.6574 28.7087 26.2148 27.9615C26.5849 27.4645 26.8623 26.7312 26.8614 26.1712C26.8605 25.8405 26.71 25.5246 26.381 25.2472ZM26.8614 21C26.3784 21 25.9864 20.608 25.9864 20.125V19.25C25.9864 14.9082 22.4531 11.375 18.1114 11.375C17.6284 11.375 17.2364 10.983 17.2364 10.5C17.2364 10.017 17.6284 9.625 18.1114 9.625C23.4183 9.625 27.7364 13.9431 27.7364 19.25V20.125C27.7364 20.608 27.3444 21 26.8614 21ZM21.4871 19.25C21.0986 19.25 20.7434 18.9892 20.641 18.5955C20.4013 17.6759 19.6838 16.9575 18.7676 16.7212C18.2995 16.5996 18.0186 16.1227 18.1394 15.6546C18.2601 15.1874 18.7361 14.9065 19.206 15.0264C20.7355 15.4227 21.9343 16.6206 22.3341 18.1536C22.4558 18.6217 22.1758 19.0986 21.7085 19.2211C21.6341 19.2404 21.5598 19.25 21.4871 19.25Z" fill="#7E57C2"/>
<path d="M24.2362 20.1251C23.7532 20.1251 23.3612 19.7331 23.3612 19.2501C23.3612 16.4606 21.1789 14.1594 18.3929 14.0124C17.9099 13.987 17.5398 13.5749 17.5652 13.0927C17.5906 12.6097 18.0097 12.2387 18.4848 12.265C22.2009 12.461 25.1112 15.5296 25.1112 19.2501C25.1112 19.7331 24.7192 20.1251 24.2362 20.1251Z" fill="#7E57C2"/>
<path d="M18.1113 3.5C14.1738 3.5 8.03828 3.86225 4.30028 7.2765C1.65778 9.90762 0.611277 13.5984 0.611277 18.375C0.611277 18.7705 0.609527 19.2115 0.613027 19.6875C0.609527 20.1626 0.611277 20.6036 0.611277 20.9991C0.611277 25.7757 1.65778 29.4665 4.30028 32.0976C5.72303 33.397 7.49753 34.2519 9.36128 34.8154V38.8281C9.36128 40.2246 10.2792 40.25 10.4472 40.25H10.455C10.8873 40.2482 11.2609 40.0365 11.6354 39.704C11.7763 39.5789 13.4029 37.7659 15.1722 35.7831C16.2257 35.8505 17.2267 35.875 18.1104 35.875C22.0479 35.875 28.1825 35.5119 31.9214 32.0976C34.563 29.4674 35.6104 25.7757 35.6104 20.9991C35.6104 20.6036 35.6122 20.1626 35.6087 19.6866C35.6122 19.2106 35.6104 18.7705 35.6104 18.3741C35.6104 13.5975 34.5639 9.90675 31.9214 7.27562C28.1834 3.86225 22.0488 3.5 18.1113 3.5ZM32.9863 20.6946V20.9991C32.9863 25.2919 32.0719 28.217 30.111 30.1971C26.7143 33.25 20.2437 33.25 18.1104 33.25C17.4612 33.25 16.4077 33.2491 15.1643 33.1625C14.8187 33.551 11.1113 37.6976 11.1113 37.6976V32.5675C9.27028 32.1256 7.45115 31.4011 6.11153 30.198C4.15065 28.217 3.23628 25.2919 3.23628 20.9991V20.6946C3.23628 20.3875 3.2354 20.0559 3.23803 19.6682C3.2354 19.3182 3.2354 18.9875 3.23628 18.6795V18.375C3.23628 14.0822 4.15065 11.1571 6.11153 9.177C9.5074 6.12412 15.9789 6.12412 18.1113 6.12412C20.2437 6.12412 26.7143 6.12412 30.1102 9.177C32.0719 11.1571 32.9854 14.0822 32.9854 18.375V18.6795C32.9854 18.9866 32.9863 19.3182 32.9837 19.7059C32.9863 20.0567 32.9863 20.3875 32.9863 20.6946Z" fill="#7E57C2"/>
</g>
<defs>
<clipPath id="clip0">
<rect x="0.222168" width="35.7778" height="40.4444" fill="white"/>
</clipPath>
</defs>
</svg>
