<svg width="39" height="39" viewBox="0 0 39 39" fill="none" xmlns="http://www.w3.org/2000/svg">
<g clip-path="url(#clip0)">
<g filter="url(#filter0_f)">
<path d="M1.62305 38.5363L4.22906 29.0647C2.62671 26.2932 1.77268 23.1448 1.78149 19.9263C1.78149 9.84058 10.0223 1.64062 20.1474 1.64062C25.0601 1.64062 29.6736 3.54376 33.1338 6.99912C36.6027 10.4545 38.5133 15.05 38.5044 19.935C38.5044 30.0206 30.2635 38.2207 20.1386 38.2207H20.1298C17.0571 38.2207 14.0371 37.449 11.3518 35.993L1.62305 38.5363ZM11.8097 32.6779L12.3643 33.0112C14.7063 34.3969 17.3916 35.1247 20.1298 35.1335H20.1386C28.5468 35.1335 35.3964 28.3192 35.3964 19.935C35.3964 15.8744 33.8117 12.0595 30.9327 9.1828C28.0537 6.30623 24.2149 4.72768 20.1386 4.72768C11.7215 4.72768 4.87179 11.542 4.87179 19.9261C4.87179 22.7941 5.67296 25.5916 7.20497 28.0123L7.56591 28.5911L6.02524 34.1952L11.8097 32.6779Z" fill="black" fill-opacity="0.24"/>
</g>
<path d="M2.45605 37.5588L4.94282 28.5251C3.40941 25.8754 2.60277 22.8705 2.60386 19.812C2.60386 10.198 10.4643 2.37695 20.1069 2.37695C24.7936 2.37695 29.1847 4.1958 32.4888 7.48698C35.7928 10.7783 37.6102 15.161 37.6102 19.8207C37.6102 29.4345 29.7498 37.2556 20.1071 37.2556H20.0984C17.1681 37.2556 14.29 36.5194 11.7336 35.1337L2.45605 37.559V37.5588Z" fill="url(#paint0_linear)"/>
<path d="M1.82129 38.1911L4.39494 28.837C2.8125 26.1001 1.96895 22.9907 1.97776 19.8121C1.97776 9.85169 10.1163 1.75342 20.1158 1.75342C24.9675 1.75342 29.5235 3.6328 32.9409 7.04533C36.3666 10.4579 38.2535 14.9964 38.2448 19.8207C38.2448 29.7811 30.1063 37.8794 20.1068 37.8794H20.0983C17.0696 37.8782 14.0893 37.1219 11.4293 35.6794L1.82129 38.1912V38.1911ZM11.8814 32.4054L12.4291 32.7345C14.7421 34.1031 17.394 34.822 20.0983 34.8306H20.107C28.4107 34.8306 35.1755 28.1009 35.1755 19.8207C35.1755 15.8106 33.6104 12.0429 30.7671 9.20208C27.9238 6.36122 24.1327 4.80219 20.107 4.80219C11.7945 4.80219 5.02977 11.5319 5.02977 19.8121C5.02977 22.6443 5.82092 25.4072 7.33394 27.7976L7.69047 28.3693L6.16879 33.9038L11.8814 32.4054Z" fill="white"/>
<path d="M15.577 12.2511C15.2378 11.4975 14.8812 11.4801 14.5596 11.4715C14.2988 11.4629 13.9945 11.4629 13.6901 11.4629C13.3858 11.4629 12.8988 11.5755 12.4815 12.0258C12.0641 12.4763 10.8989 13.5676 10.8989 15.7936C10.8989 18.0108 12.525 20.1587 12.751 20.4618C12.9771 20.7651 15.8899 25.468 20.4896 27.2783C24.3154 28.7854 25.0981 28.4822 25.924 28.4042C26.7588 28.3263 28.6022 27.3129 28.9847 26.2563C29.3585 25.1996 29.3585 24.2988 29.2455 24.1083C29.1325 23.9176 28.8282 23.8052 28.376 23.5799C27.9239 23.3547 25.698 22.2634 25.2807 22.1076C24.8632 21.9517 24.559 21.8824 24.2633 22.3327C23.9589 22.783 23.0895 23.7964 22.8285 24.0997C22.5677 24.4028 22.2982 24.4374 21.846 24.2122C21.3939 23.9871 19.9332 23.5106 18.2029 21.9689C16.8552 20.7737 15.9422 19.2926 15.6812 18.8422C15.4204 18.3919 15.6552 18.1492 15.8813 17.9242C16.0812 17.7249 16.3333 17.3958 16.5595 17.136C16.7856 16.8762 16.8638 16.6857 17.0116 16.3824C17.1594 16.0793 17.0899 15.8195 16.9768 15.5943C16.8638 15.369 15.977 13.1431 15.577 12.2511Z" fill="white"/>
</g>
<defs>
<filter id="filter0_f" x="-4.37695" y="-4.35938" width="48.8814" height="48.8957" filterUnits="userSpaceOnUse" color-interpolation-filters="sRGB">
<feFlood flood-opacity="0" result="BackgroundImageFix"/>
<feBlend mode="normal" in="SourceGraphic" in2="BackgroundImageFix" result="shape"/>
<feGaussianBlur stdDeviation="3" result="effect1_foregroundBlur"/>
</filter>
<linearGradient id="paint0_linear" x1="20.0324" y1="37.5565" x2="20.0324" y2="2.37484" gradientUnits="userSpaceOnUse">
<stop stop-color="#20B038"/>
<stop offset="1" stop-color="#60D66A"/>
</linearGradient>
<clipPath id="clip0">
<rect x="0.666504" y="0.555664" width="38.1111" height="38.1111" fill="white"/>
</clipPath>
</defs>
</svg>
