<svg width="37" height="36" viewBox="0 0 37 36" fill="none" xmlns="http://www.w3.org/2000/svg">
<g clip-path="url(#clip0)">
<path d="M36.6059 16.8923C36.5672 16.813 35.6369 14.9366 33.9915 14.4426C32.4998 13.995 29.0981 13.9696 28.9542 13.9688C28.7202 13.9676 28.5043 13.9422 28.4022 13.9229C28.3036 13.805 28.1033 13.5167 27.9712 13.2776L21.2965 1.19238C21.1523 0.931106 20.8584 0.43876 20.6716 0.250356C20.3519 -0.0733122 19.5323 0.00559205 19.4401 0.0156564L19.2585 0.0353824C19.011 0.0623548 18.5639 0.134818 18.3508 0.317988C18.2244 0.42628 17.8405 0.75639 18.1948 2.35863C18.1948 2.35863 20.7386 13.8597 20.7488 13.9104C20.7109 13.9137 17.0895 13.9157 17.0895 13.9157C16.8503 13.9157 16.63 13.8911 16.5279 13.8726C16.4273 13.7599 16.218 13.4745 16.0813 13.2386L13.7272 9.17901C13.7104 9.15043 13.3185 8.47733 13.0707 8.25632C12.7389 7.96083 12.1015 8.11179 12.0952 8.1134C11.9133 8.16332 11.6573 8.29013 11.4953 8.46082C11.2031 8.76919 11.1533 9.44471 11.3481 10.4685C11.8768 13.2466 12.631 17.3649 12.6868 17.9953C12.631 18.6258 11.8765 22.7441 11.3481 25.5222C11.3069 25.7392 11.175 26.478 11.2157 26.8616C11.2992 27.6502 12.0627 27.8684 12.0952 27.8773C12.2855 27.9296 12.5445 27.9461 12.7107 27.9172C13.1086 27.8467 13.6272 26.9836 13.7272 26.8117L16.0813 22.7517C16.2345 22.4881 16.3894 22.2598 16.4639 22.1604C16.588 22.1225 16.8742 22.075 17.0895 22.075C17.0895 22.075 20.7117 22.0758 20.7474 22.0774C20.7378 22.1314 18.195 33.6321 18.195 33.6321C18.1187 33.9775 17.9954 34.6103 18.0291 34.967C18.0835 35.5403 18.4972 35.8724 19.2588 35.9553L19.4401 35.975C19.5554 35.9875 19.7257 36 19.8946 36C20.0613 36 20.2264 35.9879 20.3365 35.9533C20.7161 35.8333 21.2385 34.9038 21.2968 34.7983L27.9715 22.7131C28.1187 22.4466 28.2676 22.2151 28.3415 22.1104C28.4656 22.0714 28.7444 22.0231 28.9542 22.0219C29.0981 22.0211 32.5001 21.9957 33.9917 21.548C35.6372 21.0537 36.5675 19.1777 36.6062 19.098C36.9124 18.4692 36.9124 17.5211 36.6059 16.8923Z" fill="black"/>
<path d="M8.01312 10.376H5.21628C4.62054 10.376 4.1377 11.0917 4.1377 11.975C4.1377 12.8578 4.62054 13.574 5.21628 13.574H8.01312C8.60886 13.574 9.09198 12.8578 9.09198 11.975C9.09198 11.0917 8.60886 10.376 8.01312 10.376Z" fill="black"/>
<path d="M8.01312 22.8389H5.21628C4.62054 22.8389 4.1377 23.5546 4.1377 24.4375C4.1377 25.3207 4.62054 26.0365 5.21628 26.0365H8.01312C8.60886 26.0365 9.09198 25.3207 9.09198 24.4375C9.09198 23.5546 8.60886 22.8389 8.01312 22.8389Z" fill="black"/>
<path d="M8.01303 16.6069H1.91479C1.31906 16.6069 0.835938 17.3231 0.835938 18.206C0.835938 19.0892 1.31906 19.805 1.91479 19.805H8.01303C8.60876 19.805 9.09189 19.0892 9.09189 18.206C9.09189 17.3231 8.60876 16.6069 8.01303 16.6069Z" fill="black"/>
</g>
<defs>
<clipPath id="clip0">
<rect x="0.5" width="36" height="36" fill="white"/>
</clipPath>
</defs>
</svg>
