<svg width="37" height="36" viewBox="0 0 37 36" fill="none" xmlns="http://www.w3.org/2000/svg">
<g clip-path="url(#clip0)">
<path d="M32.9085 8.16874H25.1551V5.04448C25.1551 3.55687 23.9449 2.34668 22.4573 2.34668H14.5412C13.0536 2.34668 11.8433 3.55687 11.8433 5.04448V8.16874H4.0899C2.11477 8.16874 0.50783 9.77568 0.50783 11.7508C0.50783 13.5449 0.324092 15.1561 1.68367 16.9681C2.4529 17.9933 3.50998 18.7246 4.74059 19.0828L16.6906 22.5621C17.8737 22.9065 19.1244 22.9067 20.3077 22.5621L32.2577 19.0828C33.4883 18.7245 34.5454 17.9933 35.3146 16.9681C36.6804 15.148 36.4905 13.5202 36.4905 11.7508C36.4905 9.77568 34.8837 8.16874 32.9085 8.16874ZM14.1284 5.04448C14.1284 4.8169 14.3136 4.6318 14.5412 4.6318H22.4573C22.6848 4.6318 22.87 4.81697 22.87 5.04448V8.16874H14.1284V5.04448Z" fill="black"/>
<path d="M32.897 21.2762C20.0074 25.0291 20.1743 25.105 18.4996 25.105C16.8369 25.105 17.2314 25.0988 4.10229 21.2763C2.71801 20.8731 1.49204 20.1302 0.508301 19.106V30.0714C0.508301 32.0465 2.11517 33.6534 4.09037 33.6534H32.9089C34.8841 33.6534 36.491 32.0465 36.491 30.0714V19.106C35.5072 20.1301 34.2812 20.8731 32.897 21.2762Z" fill="black"/>
</g>
<defs>
<clipPath id="clip0">
<rect x="0.5" width="36" height="36" fill="white"/>
</clipPath>
</defs>
</svg>
