<svg width="37" height="36" viewBox="0 0 37 36" fill="none" xmlns="http://www.w3.org/2000/svg">
<g clip-path="url(#clip0)">
<path d="M32.2685 11.6177V14.9186L32.4187 15.308L32.2685 15.3727V21.1929L34.3383 20.2975L34.7924 21.4756C34.9923 21.9968 34.7669 22.5891 34.2897 22.7964L9.30688 33.6121C8.83418 33.817 8.27282 33.5498 8.07685 33.0419L7.62336 31.8631L26.7424 23.5858H13.2997L5.70377 26.8742L4.43817 23.5852H3.16748L6.98858 33.5127C7.32009 34.374 8.09493 34.9305 8.96351 34.9305C9.23459 34.9305 9.50059 34.8754 9.75247 34.7664L34.7348 23.9506C35.8123 23.4834 36.3268 22.1621 35.8812 21.0037L32.2685 11.6177Z" fill="#3A2E2E"/>
<path d="M25.3802 14.7454V13.9434L24.9414 14.7454H25.3802Z" fill="#3A2E2E"/>
<path d="M10.2136 13.9434L9.77588 14.7454H10.2136V13.9434Z" fill="#3A2E2E"/>
<path d="M13.0865 15.0916C13.1305 15.0305 13.152 14.9515 13.152 14.8532C13.152 14.7448 13.1272 14.6616 13.0769 14.6035C13.0266 14.5454 12.9656 14.5166 12.8928 14.5166C12.834 14.5166 12.7815 14.5358 12.7369 14.5735C12.6691 14.6292 12.6353 14.7191 12.6353 14.843C12.6353 14.9431 12.6607 15.0251 12.7115 15.088C12.7623 15.1515 12.8273 15.1833 12.9052 15.1833C12.982 15.1833 13.0424 15.1521 13.0865 15.0916Z" fill="#3A2E2E"/>
<path d="M5.09667 19.5958C5.16218 19.5958 5.22373 19.576 5.27964 19.5347C5.33556 19.4951 5.36436 19.4215 5.36605 19.313V19.1938C5.34629 19.2064 5.32708 19.2172 5.30732 19.225C5.28812 19.2328 5.26044 19.2394 5.22599 19.2466L5.15709 19.2603C5.09215 19.2717 5.04584 19.2867 5.01704 19.3041C4.9696 19.3334 4.94531 19.3789 4.94531 19.4406C4.94531 19.4957 4.96 19.5341 4.9888 19.5586C5.01873 19.5838 5.05487 19.5958 5.09667 19.5958Z" fill="#3A2E2E"/>
<path d="M17.024 15.1812C17.1025 15.1812 17.1652 15.156 17.2098 15.1057C17.2544 15.0554 17.277 14.9835 17.277 14.8924C17.277 14.7978 17.2539 14.7253 17.2087 14.6762C17.1624 14.6265 17.1014 14.6025 17.024 14.6025C16.9466 14.6025 16.8851 14.6271 16.8393 14.6762C16.7936 14.7253 16.771 14.7972 16.771 14.8924C16.771 14.9841 16.7936 15.0554 16.8382 15.1057C16.8828 15.156 16.9455 15.1812 17.024 15.1812Z" fill="#3A2E2E"/>
<path d="M8.34832 18.7949C8.27038 18.7949 8.21052 18.8177 8.1676 18.8644C8.12468 18.9111 8.09813 18.9752 8.0874 19.0549H8.6081C8.60302 18.9686 8.57591 18.9045 8.52791 18.8602C8.47934 18.8165 8.41948 18.7949 8.34832 18.7949Z" fill="#3A2E2E"/>
<path d="M18.4002 13.8608C18.3414 13.8608 18.2912 13.8782 18.2488 13.913C18.1827 13.9675 18.1494 14.0609 18.1494 14.1921C18.1494 14.3023 18.1709 14.3849 18.2132 14.4407C18.2556 14.4958 18.3205 14.5233 18.4081 14.5233C18.4566 14.5233 18.5007 14.5089 18.5425 14.4796C18.621 14.4269 18.6599 14.334 18.6599 14.2041C18.6599 14.0986 18.6374 14.0154 18.591 13.9537C18.5442 13.8914 18.4809 13.8608 18.4002 13.8608Z" fill="#3A2E2E"/>
<path d="M17.0237 14.3215C17.0943 14.3215 17.1485 14.2999 17.1869 14.2568C17.2248 14.2137 17.2445 14.1592 17.2445 14.0909C17.2445 14.0172 17.2248 13.9597 17.1869 13.9178C17.1485 13.8758 17.0937 13.8555 17.0237 13.8555C16.9542 13.8555 16.8995 13.8758 16.8605 13.9178C16.821 13.9597 16.8018 14.0172 16.8018 14.0909C16.8018 14.158 16.821 14.2137 16.8605 14.2568C16.8995 14.3005 16.9542 14.3215 17.0237 14.3215Z" fill="#3A2E2E"/>
<path d="M12.0471 19.2608C11.9827 19.2722 11.9358 19.2872 11.9081 19.3045C11.8607 19.3339 11.8364 19.3794 11.8364 19.4411C11.8364 19.4962 11.8511 19.5345 11.8799 19.5591C11.9087 19.5837 11.9449 19.5962 11.9861 19.5962C12.0522 19.5962 12.1132 19.5765 12.1691 19.5351C12.225 19.495 12.2538 19.4219 12.2555 19.3135V19.1943C12.2363 19.2069 12.2171 19.2177 12.1967 19.2255C12.1775 19.2333 12.1499 19.2399 12.1154 19.247L12.0471 19.2608Z" fill="#3A2E2E"/>
<path d="M17.1238 19.2608C17.0589 19.2716 17.0126 19.2872 16.9843 19.3045C16.9369 19.3339 16.9126 19.3794 16.9126 19.4411C16.9126 19.4962 16.9273 19.5345 16.9561 19.5591C16.9849 19.5837 17.021 19.5962 17.0628 19.5962C17.1283 19.5962 17.1899 19.5765 17.2458 19.5351C17.3017 19.495 17.3305 19.4219 17.3322 19.3135V19.1943C17.313 19.2069 17.2932 19.2177 17.2735 19.2255C17.2543 19.2333 17.2266 19.2399 17.1922 19.247L17.1238 19.2608Z" fill="#3A2E2E"/>
<path d="M20.1345 18.8644C20.091 18.9111 20.065 18.9752 20.0537 19.0549H20.575C20.5693 18.9686 20.5417 18.9045 20.4936 18.8602C20.4451 18.8165 20.3858 18.7949 20.3146 18.7949C20.2367 18.7949 20.1768 18.8177 20.1345 18.8644Z" fill="#3A2E2E"/>
<path d="M28.0712 15.1833C28.148 15.1833 28.2079 15.1521 28.2519 15.0916C28.2966 15.0305 28.318 14.9515 28.318 14.8532C28.318 14.7448 28.2926 14.6616 28.2423 14.6035C28.1926 14.5454 28.1316 14.5166 28.0582 14.5166C27.9995 14.5166 27.947 14.5358 27.9029 14.5735C27.8352 14.6292 27.8013 14.7191 27.8013 14.843C27.8013 14.9431 27.8261 15.0251 27.8775 15.088C27.9283 15.1515 27.9938 15.1833 28.0712 15.1833Z" fill="#3A2E2E"/>
<path d="M3.04027 15.0105C3.07302 15.1237 3.14136 15.1812 3.24358 15.1812C3.3458 15.1812 3.413 15.1243 3.44519 15.0105C3.47287 14.9135 3.48586 14.7709 3.49037 14.5996C3.49094 14.5714 3.49376 14.5499 3.49376 14.5199C3.49376 14.2959 3.47795 14.1294 3.44632 14.0216C3.4147 13.9138 3.34749 13.8599 3.24471 13.8599C3.14192 13.8599 3.07472 13.9132 3.0414 14.0216C3.00751 14.1294 2.9917 14.2959 2.9917 14.5199C2.9917 14.6301 2.99622 14.7266 3.00525 14.8098C3.01147 14.8883 3.02333 14.956 3.04027 15.0105Z" fill="#3A2E2E"/>
<path d="M1.27089 22.2191C1.54423 22.3563 1.84693 22.4395 2.16828 22.4395H2.72569H3.99637H15.9465H29.3892H29.405C29.9788 22.4395 30.4978 22.1922 30.8813 21.7938C31.28 21.3782 31.5313 20.7989 31.5313 20.1556V15.6927V13.0068V9.70468V3.35432C31.5313 2.71102 31.28 2.13121 30.8813 1.71612C30.4973 1.3178 29.9783 1.06982 29.405 1.06982H2.16884C0.995855 1.06982 0.0419922 2.09527 0.0419922 3.35432V20.1556C0.0419922 21.0685 0.547444 21.8537 1.27089 22.2191ZM2.63758 14.5199C2.63758 14.2126 2.68276 13.9748 2.77256 13.8083C2.86235 13.6412 3.01879 13.5579 3.243 13.5579C3.46664 13.5579 3.62364 13.6418 3.71343 13.8083C3.79532 13.9604 3.83542 14.1778 3.8422 14.4462C3.84276 14.4719 3.84841 14.4917 3.84841 14.5193C3.84841 14.8265 3.80323 15.0631 3.71343 15.2291C3.62364 15.395 3.46664 15.4782 3.243 15.4782C3.01936 15.4782 2.86235 15.3956 2.77256 15.2291C2.73077 15.1524 2.7014 15.0565 2.67881 14.9499C2.65283 14.8259 2.63758 14.6846 2.63758 14.5199ZM19.0955 7.0614C19.0955 5.36389 20.399 3.98205 21.9995 3.98205C22.6303 3.98205 23.2114 4.20308 23.6881 4.56725C24.1834 4.14737 24.8029 3.88562 25.4846 3.88562C26.0691 3.88562 26.6118 4.0731 27.0675 4.39175C27.4442 4.6541 27.7503 5.0105 27.9768 5.42439C28.2242 5.87662 28.3766 6.39473 28.3766 6.95418C28.3766 8.64569 27.0788 10.0221 25.4846 10.0221C24.8594 10.0221 24.2845 9.80591 23.8112 9.44712C23.3125 9.8736 22.6885 10.1407 21.9995 10.1407C21.062 10.1407 20.2369 9.65976 19.706 8.92721C19.4654 8.59717 19.2887 8.21862 19.191 7.80233C19.1339 7.56394 19.0955 7.31836 19.0955 7.0614ZM18.5489 18.9008C18.5229 18.8409 18.4732 18.8121 18.3986 18.8121C18.3117 18.8121 18.2541 18.8415 18.2241 18.9008C18.2077 18.9343 18.2004 18.9852 18.2004 19.0517V19.7903H17.8932V18.5648H18.1874V18.7439C18.2247 18.6804 18.2603 18.6348 18.2936 18.6079C18.3523 18.56 18.428 18.5354 18.5217 18.5354C18.6093 18.5354 18.6816 18.5552 18.7364 18.5971C18.7793 18.6348 18.8137 18.6846 18.8357 18.7451C18.8758 18.6726 18.9244 18.6205 18.9837 18.5857C19.0464 18.5516 19.1153 18.5354 19.1921 18.5354C19.2429 18.5354 19.2938 18.5462 19.3429 18.5666C19.3926 18.5881 19.4372 18.6247 19.4773 18.6774C19.5095 18.7205 19.5326 18.7726 19.5428 18.8355C19.5502 18.8762 19.5535 18.9367 19.5535 19.017L19.5513 19.7909H19.2418V19.0086C19.2418 18.9625 19.2339 18.9241 19.2198 18.8942C19.1932 18.8379 19.1441 18.8085 19.0718 18.8085C18.9877 18.8085 18.9301 18.8457 18.8979 18.9194C18.8821 18.9577 18.8736 19.0056 18.8736 19.0595V19.7909H18.5686V19.0595C18.5698 18.987 18.563 18.9337 18.5489 18.9008ZM18.572 14.7595C18.5076 14.8002 18.428 14.8211 18.3337 14.8211C18.1942 14.8211 18.0705 14.7702 17.9621 14.6678C17.8536 14.5654 17.7994 14.418 17.7994 14.2258C17.7994 14.0263 17.8536 13.864 17.9626 13.7406C18.0711 13.6166 18.2117 13.5549 18.3856 13.5549C18.6533 13.5549 18.8363 13.6801 18.9357 13.9311C18.9928 14.073 19.0199 14.2605 19.0199 14.4923C19.0199 14.7175 18.9933 14.905 18.9385 15.0553C18.8346 15.3423 18.6454 15.4854 18.3698 15.4854C18.2377 15.4854 18.1196 15.4441 18.0152 15.3614C17.9101 15.2782 17.8497 15.1578 17.8344 15.0002H18.1778C18.1863 15.0547 18.2083 15.0991 18.2433 15.1338C18.2783 15.1686 18.3258 15.1847 18.3856 15.1847C18.4986 15.1847 18.5788 15.1182 18.6245 14.9841C18.6499 14.9104 18.6652 14.8038 18.6714 14.6618C18.6415 14.7055 18.6082 14.7373 18.572 14.7595ZM16.509 14.2467C16.4841 14.1766 16.4711 14.1114 16.4711 14.0509C16.4711 13.9149 16.5191 13.7999 16.6152 13.7041C16.7112 13.6088 16.8473 13.5615 17.0229 13.5615C17.198 13.5615 17.3341 13.6088 17.4307 13.7041C17.5272 13.7993 17.5747 13.9149 17.5747 14.0509C17.5747 14.1114 17.5617 14.1766 17.5363 14.2467C17.5114 14.3162 17.4555 14.3767 17.3708 14.4282C17.4572 14.4791 17.5227 14.5474 17.5668 14.6319C17.6102 14.7169 17.6328 14.811 17.6328 14.9158C17.6328 15.0727 17.5781 15.2063 17.4685 15.3159C17.3595 15.4255 17.2064 15.4806 17.0099 15.4806C16.8134 15.4806 16.6648 15.4255 16.5638 15.3159C16.4627 15.2063 16.4118 15.0727 16.4118 14.9158C16.4118 14.8116 16.4344 14.7169 16.479 14.6319C16.5237 14.5474 16.588 14.4833 16.6739 14.4408C16.5897 14.3815 16.5344 14.3168 16.509 14.2467ZM17.2838 18.8199C17.2499 18.8008 17.2014 18.7906 17.1364 18.7906C17.0641 18.7906 17.0122 18.8103 16.9828 18.8475C16.9608 18.875 16.9472 18.9128 16.9399 18.9601H16.6473C16.6541 18.8529 16.6824 18.7648 16.7326 18.6959C16.8128 18.5881 16.9506 18.5336 17.146 18.5336C17.2731 18.5336 17.386 18.5606 17.4854 18.6133C17.5843 18.6672 17.6334 18.7678 17.6334 18.9158V19.4788C17.6334 19.5171 17.634 19.565 17.6357 19.6208C17.6379 19.6621 17.6441 19.6908 17.6537 19.7064C17.6639 19.7208 17.6786 19.734 17.6989 19.7441V19.7909H17.3697C17.3601 19.7657 17.3544 19.7429 17.351 19.7208C17.3476 19.6992 17.3442 19.6747 17.3426 19.6465C17.3002 19.695 17.2522 19.7358 17.1974 19.7693C17.1325 19.8094 17.0579 19.8298 16.9749 19.8298C16.8693 19.8298 16.7823 19.7975 16.714 19.7352C16.6451 19.6717 16.6106 19.5818 16.6106 19.4656C16.6106 19.3147 16.666 19.2057 16.7767 19.138C16.8371 19.1008 16.9269 19.0757 17.0444 19.0595L17.1477 19.0463C17.2042 19.0379 17.2443 19.0296 17.2691 19.0182C17.3126 18.999 17.3341 18.9685 17.3341 18.9271C17.3335 18.8738 17.3166 18.8385 17.2838 18.8199ZM16.073 18.8948C16.0436 18.8319 15.9871 18.8002 15.9053 18.8002C15.803 18.8002 15.7336 18.8463 15.6952 18.9385C15.6754 18.987 15.6658 19.0493 15.6658 19.1254V19.7897H15.3625V18.5642H15.6556V18.7433C15.694 18.681 15.7308 18.6342 15.7652 18.6073C15.8268 18.5576 15.9064 18.533 16.0013 18.533C16.1204 18.533 16.2176 18.566 16.2932 18.633C16.3695 18.6989 16.4073 18.8097 16.4073 18.9631V19.7903H16.0973V19.0439C16.0973 18.9792 16.0899 18.9295 16.073 18.8948ZM14.3917 19.5453C14.4042 19.5579 14.4403 19.5633 14.5024 19.5633C14.512 19.5633 14.5216 19.5633 14.5324 19.5633C14.5425 19.5621 14.5527 19.5621 14.5628 19.5609V19.801L14.4194 19.8064C14.2765 19.8112 14.1788 19.7849 14.1263 19.728C14.0924 19.6908 14.0749 19.6339 14.0749 19.5573V18.8014H13.9134V18.5737H14.0749V18.2305H14.3748V18.5737H14.5628V18.8014H14.3748V19.4506C14.3737 19.5016 14.3793 19.5327 14.3917 19.5453ZM14.451 14.5983C14.4019 14.7133 14.3573 14.8553 14.3172 15.0218C14.2777 15.1883 14.2579 15.3261 14.2579 15.4333H13.8998C13.9106 15.0991 14.0139 14.7529 14.2099 14.3917C14.3369 14.1683 14.4431 14.0125 14.5284 13.9245H13.6536L13.6581 13.5956H14.8977V13.8826C14.8458 13.9359 14.7741 14.0323 14.682 14.1707C14.59 14.3078 14.5126 14.4504 14.451 14.5983ZM9.51906 15.032V14.7127L10.1646 13.5831H10.5526V14.7463H10.7508V15.0326H10.552V15.4333H10.2143V15.0326L9.51906 15.032ZM10.3086 18.1299H10.6356V19.4914H11.4178V19.7903H10.3086V18.1299ZM11.0772 15.3387C10.9705 15.2434 10.91 15.1087 10.8982 14.9344H11.2416C11.2551 15.014 11.2817 15.0751 11.3201 15.1182C11.3585 15.1614 11.4144 15.1829 11.4883 15.1829C11.5736 15.1829 11.6391 15.1506 11.6838 15.0871C11.7289 15.0242 11.751 14.9433 11.751 14.8469C11.751 14.7523 11.7295 14.6714 11.6883 14.6061C11.6465 14.5408 11.581 14.5079 11.4923 14.5079C11.4505 14.5079 11.4138 14.5133 11.3833 14.5247C11.3291 14.545 11.2884 14.5834 11.2608 14.6385L10.9513 14.6229L11.0744 13.5944H12.0401V13.9053H11.3229L11.2602 14.312C11.3138 14.2749 11.3545 14.2503 11.385 14.2389C11.4347 14.2192 11.4957 14.2096 11.5674 14.2096C11.7126 14.2096 11.8391 14.2611 11.9469 14.3647C12.0548 14.4684 12.1084 14.6181 12.1084 14.8164C12.1084 14.9883 12.0559 15.1416 11.9526 15.2776C11.8487 15.4129 11.6934 15.48 11.4855 15.48C11.3212 15.4812 11.1839 15.4339 11.0772 15.3387ZM12.2073 18.8199C12.1734 18.8008 12.1248 18.7906 12.0604 18.7906C11.9882 18.7906 11.9362 18.8103 11.9063 18.8475C11.8842 18.875 11.8701 18.9128 11.8633 18.9601H11.5714C11.5781 18.8529 11.6064 18.7648 11.6566 18.6959C11.7368 18.5881 11.8752 18.5336 12.07 18.5336C12.1971 18.5336 12.3101 18.5606 12.4095 18.6133C12.5083 18.6672 12.558 18.7678 12.558 18.9158V19.4788C12.558 19.5171 12.5586 19.565 12.5602 19.6208C12.5625 19.6621 12.5687 19.6908 12.5783 19.7064C12.5885 19.7208 12.6032 19.734 12.6235 19.7441V19.7909H12.2942C12.2852 19.7657 12.279 19.7429 12.275 19.7208C12.2717 19.6992 12.2688 19.6747 12.2671 19.6465C12.2253 19.695 12.1762 19.7358 12.122 19.7693C12.0565 19.8094 11.9825 19.8298 11.8995 19.8298C11.7939 19.8298 11.7069 19.7975 11.638 19.7352C11.5691 19.6717 11.5352 19.5818 11.5352 19.4656C11.5352 19.3147 11.5906 19.2057 11.7013 19.138C11.7617 19.1008 11.8515 19.0757 11.969 19.0595L12.0729 19.0463C12.1293 19.0379 12.1694 19.0296 12.1937 19.0182C12.2361 18.996 12.2581 18.9655 12.2581 18.9253C12.257 18.8738 12.2406 18.8385 12.2073 18.8199ZM12.4112 15.1871C12.3293 15.0338 12.2886 14.8367 12.2886 14.5935C12.2886 14.4516 12.2942 14.336 12.3055 14.2467C12.3259 14.088 12.3648 13.9562 12.423 13.8508C12.4727 13.761 12.5388 13.6885 12.6195 13.634C12.7003 13.5789 12.7974 13.5513 12.9104 13.5513C13.0736 13.5513 13.2035 13.5956 13.3006 13.6843C13.3978 13.7729 13.452 13.8909 13.4644 14.0383H13.1216C13.1216 14.0083 13.1109 13.9754 13.0883 13.9395C13.0516 13.8814 12.9951 13.852 12.92 13.852C12.8076 13.852 12.7274 13.9185 12.6805 14.0521C12.6546 14.1257 12.6371 14.2342 12.6269 14.3785C12.6698 14.3246 12.7195 14.2851 12.776 14.2605C12.8325 14.2353 12.8968 14.2234 12.9697 14.2234C13.1256 14.2234 13.2532 14.2797 13.3526 14.3917C13.452 14.5043 13.5022 14.6474 13.5022 14.8217C13.5022 14.996 13.4537 15.1488 13.356 15.2818C13.2583 15.4147 13.1064 15.4812 12.9002 15.4812C12.6794 15.4812 12.5162 15.3836 12.4112 15.1871ZM13.4605 19.389C13.4322 19.3704 13.3266 19.338 13.1431 19.2925C13.012 19.2572 12.9194 19.214 12.8658 19.1625C12.8121 19.111 12.785 19.0373 12.785 18.9421C12.785 18.8283 12.8268 18.7307 12.911 18.6492C12.9951 18.5678 13.1137 18.5264 13.2656 18.5264C13.4102 18.5264 13.5282 18.557 13.6192 18.6187C13.7106 18.6804 13.7626 18.7846 13.7762 18.9349H13.4734C13.4695 18.8948 13.4582 18.8613 13.4407 18.8373C13.4068 18.7942 13.3503 18.7726 13.2707 18.7726C13.2046 18.7726 13.1578 18.784 13.1295 18.8049C13.1013 18.8271 13.0872 18.8529 13.0872 18.8822C13.0872 18.9194 13.1024 18.9457 13.1318 18.9619C13.1617 18.9792 13.2667 19.0086 13.4475 19.0505C13.5683 19.0811 13.6587 19.126 13.7185 19.1877C13.7778 19.2494 13.8083 19.3255 13.8083 19.4183C13.8083 19.5399 13.7649 19.6387 13.6796 19.716C13.5943 19.7927 13.4616 19.831 13.2831 19.831C13.1007 19.831 12.9657 19.7909 12.8793 19.7088C12.7924 19.6273 12.7489 19.5237 12.7489 19.3973H13.0561C13.0629 19.4542 13.0764 19.4944 13.0979 19.5183C13.1352 19.5621 13.2052 19.583 13.3074 19.583C13.3673 19.583 13.4147 19.5734 13.4497 19.5549C13.4847 19.5369 13.5028 19.5081 13.5028 19.4704C13.5028 19.4363 13.4893 19.4081 13.4605 19.389ZM8.20037 19.5261C8.24725 19.5567 8.30203 19.5722 8.36754 19.5722C8.43644 19.5722 8.49235 19.5537 8.53584 19.5159C8.55956 19.4962 8.57989 19.4674 8.59796 19.4303H8.90688C8.8984 19.5034 8.86113 19.577 8.79393 19.6525C8.69058 19.7717 8.54544 19.8316 8.3585 19.8316C8.20433 19.8316 8.06822 19.7813 7.95075 19.6807C7.83329 19.58 7.77399 19.4165 7.77399 19.1895C7.77399 18.9769 7.82707 18.8139 7.93381 18.7001C8.03998 18.5875 8.17778 18.5306 8.34777 18.5306C8.4483 18.5306 8.53922 18.5498 8.61998 18.5881C8.70074 18.6253 8.76738 18.6863 8.8199 18.7696C8.86734 18.8427 8.89784 18.9277 8.91252 19.023C8.92099 19.0805 8.92438 19.1613 8.92269 19.2674H8.07952C8.08347 19.389 8.1247 19.4758 8.20037 19.5261ZM7.92082 14.07C7.92082 14.1802 7.89033 14.2725 7.82877 14.348C7.79036 14.3953 7.7497 14.427 7.70791 14.4444C7.73954 14.4444 7.78415 14.4725 7.84289 14.5306C7.93099 14.6175 7.97447 14.7349 7.97447 14.8852C7.97447 15.0422 7.92308 15.1811 7.8203 15.3009C7.71751 15.4201 7.56503 15.4794 7.36398 15.4794C7.11605 15.4794 6.94324 15.3932 6.8461 15.2213C6.79528 15.1296 6.76704 15.0092 6.76139 14.8619H7.10024C7.10024 14.9362 7.11154 14.9978 7.13356 15.0464C7.17535 15.1362 7.25159 15.1811 7.36228 15.1811C7.42949 15.1811 7.48879 15.1566 7.53905 15.1075C7.58931 15.0577 7.61416 14.9877 7.61416 14.8948C7.61416 14.772 7.56729 14.6906 7.4741 14.6498C7.42102 14.6265 7.33687 14.6145 7.22279 14.6145V14.3521C7.33461 14.3504 7.41311 14.339 7.45716 14.3168C7.50912 14.2923 7.53679 14.2443 7.55373 14.1856C7.56164 14.1581 7.57237 14.1335 7.57237 14.0982C7.57237 14.0275 7.55261 13.97 7.5142 13.9251C7.47467 13.8808 7.41989 13.858 7.3493 13.858C7.26797 13.858 7.20811 13.8855 7.1697 13.9407C7.1313 13.9952 7.11266 14.0682 7.11492 14.1605H6.79302C6.79584 14.0682 6.81165 13.9802 6.8382 13.8975C6.86643 13.8245 6.91048 13.758 6.97091 13.6957C7.01609 13.6519 7.06974 13.619 7.1313 13.5956C7.19342 13.5723 7.26967 13.5609 7.36003 13.5609C7.52776 13.5609 7.6633 13.607 7.76608 13.6987C7.85983 13.7825 7.90444 13.8951 7.91348 14.0305C7.91517 14.0455 7.92082 14.0557 7.92082 14.07ZM7.25385 18.8936C7.22674 18.8373 7.17761 18.8079 7.10476 18.8079C7.02117 18.8079 6.96357 18.8451 6.93194 18.9188C6.91557 18.9571 6.9071 19.005 6.9071 19.0589V19.7903H6.60269V19.0589C6.60269 18.9858 6.59535 18.9325 6.58123 18.9002C6.55582 18.8403 6.50612 18.8115 6.43158 18.8115C6.34517 18.8115 6.28756 18.8409 6.25707 18.9002C6.24069 18.9337 6.23335 18.9846 6.23335 19.0511V19.7897H5.92612V18.5642H6.22036V18.7433C6.25763 18.6798 6.29321 18.6342 6.32653 18.6073C6.38527 18.5594 6.46151 18.5348 6.55469 18.5348C6.64279 18.5348 6.71508 18.5546 6.7693 18.5965C6.81335 18.6342 6.84667 18.684 6.86869 18.7445C6.90879 18.672 6.95792 18.6199 7.01609 18.5851C7.07821 18.551 7.14768 18.5348 7.22449 18.5348C7.27588 18.5348 7.32614 18.5456 7.37527 18.566C7.42497 18.5875 7.46959 18.6241 7.51025 18.6768C7.54244 18.7199 7.56503 18.772 7.57576 18.8349C7.5831 18.8756 7.58649 18.9361 7.58649 19.0164L7.58423 19.7903H7.27418V19.008C7.27588 18.9625 7.26797 18.9241 7.25385 18.8936ZM21.3461 13.9496C21.3054 13.8975 21.2455 13.8712 21.1699 13.8712C21.0648 13.8712 20.9937 13.9131 20.9558 13.9958C20.9344 14.0443 20.9208 14.1203 20.9169 14.224H20.5814C20.587 14.0658 20.6147 13.9377 20.6633 13.84C20.7553 13.6537 20.9185 13.5615 21.1535 13.5615C21.3393 13.5615 21.4873 13.6154 21.5974 13.725C21.7069 13.834 21.7617 13.9784 21.7617 14.1587C21.7617 14.2964 21.7228 14.4192 21.6454 14.5265C21.5934 14.5977 21.5104 14.6768 21.3941 14.7642L21.2563 14.8685C21.1699 14.9332 21.11 14.9811 21.0784 15.0092C21.0467 15.0386 21.0196 15.0721 20.9976 15.1111H21.764V15.4339H20.5622C20.5644 15.3003 20.5921 15.1781 20.6424 15.0679C20.6921 14.9433 20.8079 14.8122 20.992 14.6732C21.1501 14.5528 21.254 14.466 21.3009 14.4132C21.372 14.3324 21.4082 14.2431 21.4082 14.1467C21.4082 14.067 21.3867 14.0017 21.3461 13.9496ZM20.5865 18.5881C20.6672 18.6253 20.735 18.6863 20.7864 18.7696C20.8344 18.8427 20.8649 18.9277 20.8796 19.023C20.8875 19.0805 20.8914 19.1613 20.8886 19.2674H20.0454C20.05 19.3895 20.0906 19.477 20.1669 19.5267C20.2132 19.5573 20.2685 19.5728 20.334 19.5728C20.4029 19.5728 20.4588 19.5543 20.5023 19.5165C20.526 19.4968 20.5464 19.468 20.565 19.4309H20.8734C20.8649 19.504 20.8282 19.5776 20.7615 19.6531C20.6576 19.7723 20.5125 19.8322 20.3261 19.8322C20.1725 19.8322 20.0358 19.7819 19.9184 19.6813C19.8009 19.5806 19.7422 19.4171 19.7422 19.1901C19.7422 18.9775 19.7953 18.8145 19.9014 18.7007C20.0076 18.5881 20.146 18.5312 20.316 18.5312C20.4159 18.5306 20.5068 18.5498 20.5865 18.5881ZM20.0437 15.4327H19.6897V14.1485H19.2774V13.8993C19.3864 13.8945 19.4626 13.8861 19.5055 13.876C19.575 13.8598 19.6315 13.8274 19.6744 13.7789C19.7049 13.7454 19.7269 13.7011 19.7422 13.6454C19.7512 13.6118 19.7552 13.5873 19.7552 13.5711H20.0437V15.4327ZM24.0202 14.6492C23.9671 14.6259 23.8829 14.6139 23.7688 14.6139V14.3516C23.8801 14.3498 23.9592 14.3384 24.0032 14.3162C24.08 14.2797 24.1184 14.2078 24.1184 14.0976C24.1184 14.0269 24.0987 13.9694 24.0597 13.9245C24.0207 13.8802 23.9654 13.8574 23.8953 13.8574C23.8135 13.8574 23.7542 13.8849 23.7158 13.9401C23.6779 13.9946 23.6587 14.0676 23.661 14.1599H23.3396C23.3419 14.0676 23.3577 13.9796 23.3842 13.8969C23.4119 13.8239 23.4571 13.7574 23.517 13.6951C23.5621 13.6513 23.6158 13.6184 23.6774 13.595C23.7395 13.5717 23.8157 13.5603 23.9055 13.5603C24.0732 13.5603 24.2088 13.6064 24.3127 13.6981C24.4149 13.7897 24.4663 13.9131 24.4663 14.0688C24.4663 14.1784 24.4347 14.2713 24.3743 14.3462C24.3353 14.3941 24.2946 14.4258 24.2528 14.4426C24.285 14.4426 24.3296 14.4713 24.3889 14.5288C24.477 14.6157 24.5205 14.7337 24.5205 14.8834C24.5205 15.0404 24.4691 15.1787 24.3663 15.2985C24.2636 15.4177 24.1111 15.4776 23.9095 15.4776C23.6615 15.4776 23.4882 15.3914 23.3922 15.2189C23.3408 15.1278 23.3131 15.0074 23.308 14.8595H23.6463C23.6463 14.9344 23.6576 14.9955 23.6807 15.0446C23.722 15.1344 23.7988 15.1793 23.9083 15.1793C23.9755 15.1793 24.0348 15.1548 24.0851 15.1057C24.1354 15.0559 24.1608 14.9859 24.1608 14.893C24.1602 14.772 24.1128 14.6906 24.0202 14.6492ZM25.9166 14.7457V15.032H25.7172V15.4327H25.3795V15.032H24.6854V14.7121L25.3304 13.5825H25.7189V14.7457H25.9166ZM26.8546 14.6061C26.8134 14.5408 26.7479 14.5079 26.6587 14.5079C26.6169 14.5079 26.5802 14.5133 26.5502 14.5247C26.496 14.545 26.4548 14.5834 26.4271 14.6385L26.1182 14.6229L26.2413 13.5944H27.2076V13.9053H26.4898L26.4271 14.312C26.4808 14.2749 26.5214 14.2503 26.5514 14.2389C26.6022 14.2192 26.6621 14.2096 26.7338 14.2096C26.8795 14.2096 27.0054 14.2611 27.1133 14.3647C27.2212 14.4684 27.2748 14.6181 27.2748 14.8164C27.2748 14.9883 27.2229 15.1416 27.1195 15.2776C27.0162 15.4135 26.8603 15.48 26.6525 15.48C26.4853 15.48 26.3481 15.4327 26.2413 15.3381C26.1346 15.2428 26.0736 15.1087 26.0617 14.9338H26.4051C26.4186 15.0134 26.4452 15.0745 26.4842 15.1176C26.5231 15.1608 26.5796 15.1823 26.653 15.1823C26.7389 15.1823 26.8038 15.15 26.849 15.0865C26.893 15.023 26.9156 14.9421 26.9156 14.8457C26.9179 14.7523 26.8959 14.6714 26.8546 14.6061ZM28.6313 14.0395H28.288C28.288 14.0095 28.2767 13.9766 28.2547 13.9407C28.2179 13.8826 28.1615 13.8532 28.0864 13.8532C27.974 13.8532 27.8932 13.9197 27.8463 14.0533C27.8209 14.1269 27.8029 14.2353 27.7933 14.3797C27.8356 14.3258 27.8853 14.2863 27.9418 14.2617C27.9983 14.2365 28.0638 14.224 28.1361 14.224C28.2908 14.224 28.419 14.2803 28.519 14.3929C28.6184 14.5055 28.6686 14.6486 28.6686 14.8223C28.6686 14.9966 28.6195 15.1494 28.5218 15.2824C28.4241 15.4153 28.2727 15.4818 28.066 15.4818C27.8452 15.4818 27.682 15.3836 27.5775 15.1877C27.4951 15.0344 27.455 14.8373 27.455 14.5941C27.455 14.4522 27.4612 14.3366 27.4719 14.2473C27.4917 14.0886 27.5312 13.9574 27.5894 13.8514C27.6396 13.7616 27.7052 13.6891 27.7865 13.6346C27.8672 13.5795 27.9644 13.5519 28.0779 13.5519C28.2405 13.5519 28.371 13.5962 28.4676 13.6849C28.5641 13.7741 28.6184 13.8921 28.6313 14.0395ZM5.98712 13.5615C6.17349 13.5615 6.32088 13.6154 6.43101 13.725C6.54114 13.834 6.59592 13.9784 6.59592 14.1587C6.59592 14.2964 6.55752 14.4192 6.47958 14.5265C6.42932 14.5965 6.34686 14.6744 6.23278 14.7601C6.23109 14.7613 6.22996 14.7624 6.22827 14.7636L6.0899 14.8679C6.0035 14.9326 5.9442 14.9805 5.91201 15.0086C5.88038 15.038 5.85327 15.0715 5.83125 15.1105H6.59761V15.4333H5.39526C5.39808 15.3087 5.42406 15.1955 5.46811 15.0907C5.47094 15.0829 5.47263 15.0745 5.47602 15.0667C5.52515 14.9421 5.64093 14.811 5.82503 14.672C5.98373 14.5516 6.08708 14.4648 6.13339 14.412C6.20511 14.3312 6.24126 14.2419 6.24126 14.1455C6.24126 14.067 6.22036 14.0011 6.1797 13.949C6.13904 13.8969 6.07974 13.8706 6.0035 13.8706C5.89845 13.8706 5.82729 13.9125 5.78945 13.9952C5.76743 14.0437 5.75444 14.1197 5.75105 14.2234H5.41503C5.42067 14.0652 5.44778 13.9371 5.49635 13.8394C5.53645 13.7586 5.59631 13.7029 5.66352 13.6573C5.69514 13.6364 5.73298 13.625 5.76969 13.6112C5.83576 13.5879 5.90128 13.5615 5.98712 13.5615ZM3.47511 19.7903H3.17071V18.1299H3.51351L4.13474 19.2877V18.1299H4.4397V19.7903H4.11271L3.47624 18.6121V19.7903H3.47511ZM4.52441 15.4327V14.1515V14.1485H4.11102V13.8993C4.22001 13.8945 4.29569 13.8861 4.33918 13.876C4.40864 13.8598 4.46512 13.8274 4.50804 13.7789C4.53797 13.7454 4.55999 13.7011 4.57524 13.6454C4.58428 13.6118 4.5888 13.5873 4.5888 13.5711H4.87738V13.9994V15.3471V15.4333H4.67803L4.52441 15.4327ZM3.38983 9.61484V8.43006H4.51143V9.64179H3.39266C3.39266 9.63221 3.38983 9.62382 3.38983 9.61484ZM4.51143 11.1985C4.06414 11.0566 3.69818 10.7152 3.51634 10.2653H4.51143V11.1985ZM5.09933 10.2653H6.06901V11.2746H5.09933V10.2653ZM6.65691 10.2653H7.65257C7.47072 10.7152 7.10419 11.0566 6.65691 11.1985V10.2653ZM7.77851 9.61484C7.77851 9.62442 7.77625 9.63221 7.77625 9.64179H6.65804V8.43006H7.77907L7.77851 9.61484ZM6.36324 7.80592L6.06901 7.80652V9.64119H5.09933V6.61935H6.21358C6.92008 6.61935 7.51194 7.12189 7.70565 7.80533H6.36324V7.80592ZM4.51143 7.80592H3.46268C3.61404 7.27224 4.00767 6.85595 4.51143 6.69602V7.80592ZM4.80905 19.1362C4.86948 19.0996 4.95927 19.0733 5.07674 19.0577L5.18065 19.0439C5.23713 19.0362 5.27666 19.0278 5.30151 19.0158C5.345 18.996 5.36702 18.9655 5.36702 18.9253C5.36702 18.8744 5.35064 18.8403 5.31732 18.8205C5.28344 18.8014 5.23487 18.7912 5.17049 18.7912C5.0982 18.7912 5.04624 18.8109 5.01631 18.8481C4.99429 18.8756 4.98073 18.9134 4.97339 18.9607H4.68142C4.68763 18.8535 4.71643 18.7654 4.76669 18.6965C4.84689 18.5887 4.98525 18.5342 5.18009 18.5342C5.30716 18.5342 5.42011 18.5612 5.5195 18.6139C5.61834 18.6678 5.66803 18.7684 5.66803 18.9164V19.4794C5.66803 19.5177 5.6686 19.5656 5.67029 19.6214C5.67255 19.6627 5.6782 19.692 5.68836 19.707C5.69853 19.7214 5.71265 19.7346 5.73298 19.7447V19.7915H5.40373C5.39413 19.7663 5.38848 19.7435 5.38509 19.7214C5.38171 19.6998 5.37888 19.6753 5.37662 19.6471C5.33483 19.6956 5.2857 19.7364 5.23148 19.7699C5.16597 19.81 5.09199 19.8304 5.00897 19.8304C4.90336 19.8304 4.81639 19.7981 4.74749 19.7358C4.67859 19.6723 4.64471 19.5824 4.64471 19.4662C4.64358 19.3129 4.69892 19.2033 4.80905 19.1362Z" fill="#3A2E2E"/>
<path d="M20.2735 8.68129C20.6971 9.18982 21.3104 9.51686 21.9994 9.51686C22.4924 9.51686 22.9476 9.34975 23.3237 9.06883H23.3983H23.7851H23.8371H24.1816H24.2962C24.3036 9.06284 24.3081 9.05445 24.316 9.04846C24.473 8.91489 24.617 8.76515 24.7401 8.59563H24.5001H24.168H23.7902H23.7874H23.4062H23.0465C22.9781 8.47883 22.9154 8.35664 22.8606 8.22966H23.1933H23.5282H24.0223H24.3567H24.6825H24.9621C25.0378 8.07932 25.0999 7.92119 25.1479 7.75587H24.8215H24.5148H24.2081H23.3181H23.0103H22.7042C22.6946 7.71813 22.6799 7.6816 22.672 7.64326C22.65 7.54623 22.641 7.4462 22.6297 7.34677H22.9239H23.2181H23.3559H24.2878H24.582H24.8762H25.2365C25.2524 7.22458 25.2716 7.10238 25.2716 6.9754C25.2716 6.94066 25.2631 6.90832 25.2608 6.87298H24.8853H24.591H24.4504H24.2968H23.1871H22.8928H22.5986C22.6026 6.73761 22.6172 6.60523 22.637 6.47525H22.9312H23.2255H24.2392H24.547H24.8457H25.2219C25.1919 6.31114 25.1468 6.15301 25.0908 6.00146H24.7142H24.4081H24.0777H23.3616H23.3497H23.0538H22.7477C22.7923 5.85951 22.8431 5.72414 22.9053 5.59236H23.2373H23.5717H23.8422H24.2025H24.2957H24.534H24.896C24.8548 5.52108 24.8 5.46119 24.7548 5.3941C24.6904 5.30066 24.6328 5.20123 24.5566 5.11797H24.2324H23.9789H23.8546H23.5598H23.3983H23.182C23.2085 5.08084 23.2385 5.0461 23.2656 5.01016C22.9013 4.75739 22.4676 4.60645 22.0005 4.60645C20.7236 4.60645 19.6851 5.70796 19.6851 7.06165C19.6851 7.23536 19.7031 7.40367 19.7359 7.56659C19.8183 7.99067 20.012 8.36862 20.2735 8.68129Z" fill="#3A2E2E"/>
</g>
<defs>
<clipPath id="clip0">
<rect x="0.5" width="36" height="36" fill="white"/>
</clipPath>
</defs>
</svg>
