<svg width="85" height="86" viewBox="0 0 85 86" fill="none" xmlns="http://www.w3.org/2000/svg">
<g clip-path="url(#clip0)">
<path d="M63.5815 0.543457H21.4148C19.6259 0.544161 17.9104 1.25503 16.6453 2.51988C15.3802 3.78472 14.669 5.50007 14.668 7.289V78.8019C14.6697 80.5906 15.3812 82.3055 16.6461 83.5702C17.911 84.8349 19.6261 85.546 21.4148 85.5474H63.5815C65.3705 85.5457 67.0858 84.8346 68.3513 83.5701C69.6168 82.3056 70.3292 80.5909 70.3324 78.8019V7.29963C70.3302 5.51033 69.6181 3.79499 68.3524 2.53026C67.0867 1.26553 65.3708 0.554785 63.5815 0.554082" fill="#405866"/>
<path d="M59.2064 5.69135H25.7908C24.3736 5.69134 23.0142 6.25343 22.0108 7.25431C21.0075 8.2552 20.442 9.61318 20.4385 11.0304V67.6975C20.4413 69.115 21.0065 70.4734 22.0101 71.4744C23.0136 72.4754 24.3734 73.0373 25.7908 73.0366H59.2064C62.1549 73.0366 64.5455 70.6327 64.5455 67.6975V11.0251C64.5455 8.07666 62.1482 5.68604 59.2064 5.68604" fill="#85CFEA"/>
<path d="M41.5701 5.69113H25.7986C24.3814 5.69113 23.022 6.25321 22.0186 7.2541C21.0153 8.25499 20.4498 9.61297 20.4463 11.0302V67.6973C20.4491 69.1147 21.0143 70.4731 22.0179 71.4742C23.0214 72.4752 24.3812 73.0371 25.7986 73.0364H59.2143C60.294 73.0364 61.2914 72.7057 62.1308 72.1611C47.9239 53.655 40.319 28.7779 41.5741 5.68848" fill="#28A6DE"/>
<path d="M46.8827 79.4207C46.8827 81.8339 44.9223 83.8008 42.5038 83.8008C40.0853 83.8008 38.125 81.8352 38.125 79.4207C38.125 77.0062 40.0853 75.0405 42.5038 75.0405C44.9223 75.0405 46.8827 77.0062 46.8827 79.4207Z" fill="#CBD5DC"/>
<path d="M30.0087 79.4209C30.0176 79.847 29.9415 80.2706 29.7847 80.6668C29.6279 81.0631 29.3935 81.4241 29.0955 81.7287C28.7974 82.0333 28.4415 82.2753 28.0488 82.4406C27.656 82.606 27.2341 82.6913 26.808 82.6915C26.3818 82.6918 25.9599 82.607 25.5669 82.4422C25.1739 82.2773 24.8177 82.0357 24.5193 81.7315C24.2208 81.4273 23.9861 81.0666 23.8288 80.6705C23.6714 80.2745 23.5948 79.851 23.6032 79.4249C23.6197 78.5868 23.9641 77.7885 24.5625 77.2014C25.161 76.6143 25.9657 76.2852 26.804 76.2847C27.6423 76.2841 28.4474 76.6123 29.0466 77.1986C29.6457 77.7849 29.9911 78.5828 30.0087 79.4209Z" fill="#CBD5DC"/>
<path d="M54.9974 79.4209C54.9851 79.8491 55.0588 80.2755 55.2142 80.6748C55.3695 81.0741 55.6034 81.4381 55.902 81.7454C56.2005 82.0527 56.5577 82.297 56.9524 82.4638C57.347 82.6306 57.7711 82.7165 58.1995 82.7165C58.628 82.7165 59.0521 82.6306 59.4467 82.4638C59.8413 82.297 60.1985 82.0527 60.4971 81.7454C60.7956 81.4381 61.0295 81.0741 61.1849 80.6748C61.3403 80.2755 61.414 79.8491 61.4016 79.4209C61.4016 78.5716 61.0643 77.7571 60.4638 77.1566C59.8632 76.5561 59.0488 76.2188 58.1995 76.2188C57.3503 76.2188 56.5358 76.5561 55.9353 77.1566C55.3348 77.7571 54.9974 78.5716 54.9974 79.4209Z" fill="#CBD5DC"/>
</g>
<defs>
<clipPath id="clip0">
<rect y="0.543457" width="85" height="85" fill="white"/>
</clipPath>
</defs>
</svg>
