<svg width="85" height="86" viewBox="0 0 85 86" fill="none" xmlns="http://www.w3.org/2000/svg">
<g clip-path="url(#clip0)">
<path d="M42.5 0.543457C19.0277 0.543457 0 19.5712 0 43.0435C0 66.5157 19.0277 85.5435 42.5 85.5435C65.9723 85.5435 85 66.5157 85 43.0435C85 19.5712 65.9723 0.543457 42.5 0.543457Z" fill="#40B3E0"/>
<path d="M63.1794 24.9908L55.5881 63.2638C55.5881 63.2638 54.5266 65.918 51.6071 64.644L34.0898 51.214L27.7201 48.1354L16.9975 44.5256C16.9975 44.5256 15.3519 43.9419 15.1926 42.6679C15.0332 41.3939 17.0506 40.7039 17.0506 40.7039L59.6754 23.9828C59.6754 23.9828 63.179 22.4435 63.179 24.9915" fill="white"/>
<path d="M32.7443 62.8333C32.7443 62.8333 32.233 62.7855 31.5955 60.7681C30.959 58.751 27.7207 48.1346 27.7207 48.1346L53.4657 31.7854C53.4657 31.7854 54.9522 30.8829 54.8991 31.7854C54.8991 31.7854 55.1644 31.9447 54.3679 32.6878C53.572 33.4312 34.1438 50.8951 34.1438 50.8951" fill="#D2E5F1"/>
<path d="M40.8068 56.363L33.8784 62.6802C33.8784 62.6802 33.3365 63.0913 32.7441 62.8336L34.0709 51.0996" fill="#B5CFE4"/>
</g>
<defs>
<clipPath id="clip0">
<rect y="0.543457" width="85" height="85" fill="white"/>
</clipPath>
</defs>
</svg>
