<svg width="85" height="97" viewBox="0 0 85 97" fill="none" xmlns="http://www.w3.org/2000/svg">
<path d="M42.5002 10.394C37.0142 10.394 20.3194 10.394 11.0895 18.8215C5.59312 24.2971 3.00293 32.209 3.00293 43.6549V49.8913C3.00293 61.3372 5.59312 69.2492 11.1539 74.7871C13.9229 77.3128 17.698 79.3314 22.3129 80.7262L23.791 81.1711V92.247C23.791 93.5462 24.1672 93.5462 24.292 93.5462C24.5477 93.5462 24.9572 93.4651 25.7347 92.775C25.9217 92.59 27.2938 91.1057 33.9667 83.6303L34.6402 82.8757L35.6485 82.9402C37.8832 83.0794 40.1886 83.1522 42.5002 83.1522C47.9862 83.1522 64.681 83.1522 73.9109 74.7226C79.4052 69.2471 81.9975 61.3351 81.9975 49.8913V43.6549C81.9975 32.209 79.4073 24.2971 73.8465 18.7592C64.681 10.394 47.9862 10.394 42.5002 10.394Z" fill="white"/>
<path d="M62.147 59.9817C59.8375 58.0359 58.771 57.4476 55.5822 55.533C54.2538 54.7368 52.229 54.0488 51.1668 54.0488C50.4413 54.0488 49.5723 54.6038 49.0402 55.136C47.6765 56.4997 47.2295 58.2064 44.8389 58.2064C42.5002 58.2064 38.4154 55.8261 35.4843 52.7495C32.4076 49.8184 30.0274 45.7335 30.0274 43.3949C30.0274 41.0043 31.7029 40.5261 33.0666 39.1604C33.5988 38.6303 34.185 37.7613 34.185 37.0358C34.185 35.9736 33.4969 33.98 32.7008 32.6516C30.7862 29.4607 30.2 28.3942 28.2521 26.0868C27.5931 25.3051 26.8427 24.9476 26.0569 24.9455C24.7285 24.9434 22.9844 25.6024 21.8037 26.4817C20.0284 27.8059 18.172 29.6083 17.6752 31.8534C17.6086 32.159 17.5691 32.4666 17.5567 32.7743C17.461 35.1129 18.3799 37.4869 19.3715 39.4971C21.706 44.2347 24.7951 48.8206 28.1565 52.9158C29.2312 54.2255 30.4016 55.4436 31.6135 56.6202C32.7901 57.8301 34.0083 59.0005 35.318 60.0773C39.4132 63.4387 43.9991 66.5278 48.7367 68.8623C50.7281 69.8435 53.073 70.7457 55.3888 70.6792C55.7194 70.6688 56.0499 70.6314 56.3804 70.5586C58.6255 70.0639 60.4279 68.2054 61.7521 66.4301C62.6314 65.2494 63.2904 63.5073 63.2883 62.1769C63.2862 61.3911 62.9287 60.6407 62.147 59.9817ZM63.2883 49.8912C62.1408 49.8912 61.2095 48.9599 61.2095 47.8124V45.7335C61.2095 35.4185 52.8153 27.0243 42.5002 27.0243C41.3527 27.0243 40.4214 26.093 40.4214 24.9455C40.4214 23.798 41.3527 22.8667 42.5002 22.8667C55.1082 22.8667 65.3671 33.1256 65.3671 45.7335V47.8124C65.3671 48.9599 64.4358 49.8912 63.2883 49.8912ZM50.5203 45.7335C49.5973 45.7335 48.7533 45.1141 48.5101 44.1786C47.9405 41.9938 46.2359 40.2871 44.0593 39.7258C42.9472 39.4368 42.2799 38.3039 42.5668 37.1917C42.8536 36.0817 43.9845 35.4144 45.1008 35.6992C48.7346 36.6409 51.5825 39.4867 52.5326 43.1288C52.8215 44.241 52.1563 45.3739 51.0462 45.6649C50.8695 45.7107 50.6928 45.7335 50.5203 45.7335Z" fill="#7E57C2"/>
<path d="M57.0519 47.8127C55.9044 47.8127 54.9731 46.8814 54.9731 45.7339C54.9731 39.1067 49.7886 33.6395 43.1697 33.2902C42.0222 33.2299 41.1428 32.2508 41.2031 31.1054C41.2634 29.9579 42.2592 29.0765 43.3879 29.1389C52.2166 29.6045 59.1307 36.8949 59.1307 45.7339C59.1307 46.8814 58.1994 47.8127 57.0519 47.8127Z" fill="#7E57C2"/>
<path d="M42.5 8.31543C33.1454 8.31543 18.5688 9.17605 9.68813 17.2875C3.41014 23.5385 0.923891 32.3069 0.923891 43.6551C0.923891 44.5947 0.919733 45.6424 0.928048 46.7733C0.919733 47.9021 0.923891 48.9498 0.923891 49.8894C0.923891 61.2376 3.41014 70.006 9.68813 76.257C13.0683 79.344 17.2841 81.375 21.7119 82.7138V92.2472C21.7119 95.5649 23.8926 95.6252 24.2917 95.6252H24.3104C25.3374 95.621 26.225 95.118 27.1147 94.328C27.4494 94.0308 31.3139 89.7235 35.5173 85.0129C38.0201 85.173 40.3983 85.2312 42.4979 85.2312C51.8525 85.2312 66.427 84.3685 75.3097 76.257C81.5856 70.0081 84.074 61.2376 84.074 49.8894C84.074 48.9498 84.0781 47.9021 84.0698 46.7712C84.0781 45.6404 84.074 44.5947 84.074 43.653C84.074 32.3048 81.5877 23.5364 75.3097 17.2855C66.4291 9.17605 51.8546 8.31543 42.5 8.31543ZM77.8396 49.166V49.8894C77.8396 60.0881 75.6673 67.0375 71.0087 71.7418C62.9388 78.9948 47.566 78.9948 42.4979 78.9948C40.9554 78.9948 38.4525 78.9927 35.4986 78.7869C34.6774 79.7099 25.8695 89.5613 25.8695 89.5613V77.3733C21.4957 76.3235 17.1739 74.6023 13.9913 71.7439C9.33265 67.0375 7.1603 60.0881 7.1603 49.8894V49.166C7.1603 48.4363 7.15822 47.6485 7.16446 46.7276C7.15822 45.8961 7.15822 45.1103 7.1603 44.3785V43.6551C7.1603 33.4565 9.33265 26.507 13.9913 21.8027C22.0591 14.5498 37.4339 14.5498 42.5 14.5498C47.566 14.5498 62.9388 14.5498 71.0066 21.8027C75.6673 26.507 77.8376 33.4565 77.8376 43.6551V44.3785C77.8376 45.1082 77.8396 45.8961 77.8334 46.817C77.8396 47.6506 77.8396 48.4363 77.8396 49.166Z" fill="#7E57C2"/>
</svg>
