<svg width="85" height="86" viewBox="0 0 85 86" fill="none" xmlns="http://www.w3.org/2000/svg">
<g clip-path="url(#clip0)">
<g filter="url(#filter0_f)">
<path d="M2.13379 85.2531L7.94603 64.1284C4.37229 57.9469 2.46751 50.9251 2.48717 43.7467C2.48717 21.2524 20.8668 2.96387 43.449 2.96387C54.406 2.96387 64.6956 7.20847 72.4129 14.915C80.1496 22.6216 84.4108 32.8711 84.3911 43.7663C84.3911 66.2603 66.0112 84.5491 43.4293 84.5491H43.4097C36.5566 84.5491 29.8211 82.8279 23.832 79.5806L2.13379 85.2531ZM24.8532 72.1869L26.0902 72.9304C31.3136 76.0208 37.3027 77.6441 43.4097 77.6637H43.4293C62.1823 77.6637 77.4591 62.4655 77.4591 43.7663C77.4591 34.7098 73.9247 26.2013 67.5036 19.7853C61.0826 13.3697 52.5209 9.84898 43.4293 9.84898C24.6567 9.84898 9.37952 25.0471 9.37952 43.7464C9.37952 50.1428 11.1664 56.3823 14.5833 61.7811L15.3883 63.072L11.9521 75.5709L24.8532 72.1869Z" fill="black" fill-opacity="0.24"/>
</g>
<path d="M3.99219 83.0728L9.53847 62.9247C6.11848 57.015 4.3194 50.3131 4.32185 43.4918C4.32185 22.0494 21.8531 4.60596 43.3592 4.60596C53.8121 4.60596 63.6057 8.66258 70.9748 16.003C78.3438 23.3437 82.3973 33.1184 82.3973 43.511C82.3973 64.9531 64.8661 82.3965 43.3596 82.3965H43.3403C36.8047 82.3965 30.3856 80.7546 24.6842 77.6639L3.99219 83.0732V83.0728Z" fill="url(#paint0_linear)"/>
<path d="M2.57617 84.4825L8.31625 63.62C4.78689 57.5158 2.90549 50.5808 2.92514 43.4915C2.92514 21.2766 21.0768 3.21484 43.3787 3.21484C54.1996 3.21484 64.3611 7.40646 71.9829 15.0175C79.6233 22.6286 83.8317 32.7509 83.8124 43.5107C83.8124 65.7256 65.6608 83.7873 43.3588 83.7873H43.3398C36.5848 83.7847 29.9379 82.0978 24.0051 78.8806L2.57617 84.4829V84.4825ZM25.0134 71.5787L26.2351 72.3127C31.3938 75.3649 37.3083 76.9684 43.3398 76.9876H43.3591C61.879 76.9876 76.9668 61.9781 76.9668 43.5107C76.9668 34.5669 73.476 26.1638 67.1346 19.8277C60.7931 13.4917 52.3378 10.0146 43.3591 10.0146C24.8196 10.0146 9.73212 25.0241 9.73212 43.4915C9.73212 49.8082 11.4966 55.9705 14.8712 61.3018L15.6663 62.5768L12.2725 74.9205L25.0134 71.5787Z" fill="white"/>
<path d="M33.2558 26.6276C32.4993 24.9469 31.7041 24.9081 30.9868 24.8889C30.4051 24.8696 29.7265 24.8696 29.0475 24.8696C28.3689 24.8696 27.2827 25.1207 26.352 26.1251C25.4209 27.1298 22.8223 29.5638 22.8223 34.5286C22.8223 39.4735 26.4489 44.2641 26.953 44.9401C27.4572 45.6164 33.9538 56.1056 44.2125 60.143C52.7454 63.5044 54.4909 62.828 56.333 62.6542C58.1948 62.4804 62.3062 60.2203 63.1593 57.8636C63.9931 55.5069 63.9931 53.4978 63.7411 53.0729C63.489 52.6477 62.8103 52.3969 61.8017 51.8944C60.7934 51.3922 55.8289 48.9583 54.8982 48.6106C53.9671 48.263 53.2885 48.1085 52.6292 49.1128C51.9502 50.1172 50.0112 52.3774 49.4291 53.0537C48.8474 53.7297 48.2464 53.807 47.2377 53.3048C46.2295 52.8026 42.9715 51.7398 39.1125 48.3015C36.1066 45.6357 34.0703 42.3323 33.4883 41.328C32.9065 40.3236 33.4303 39.7823 33.9345 39.2804C34.3803 38.8359 34.9428 38.1019 35.4472 37.5224C35.9514 36.943 36.1259 36.5181 36.4555 35.8417C36.7852 35.1657 36.63 34.5863 36.378 34.0841C36.1259 33.5816 34.1479 28.6171 33.2558 26.6276Z" fill="white"/>
</g>
<defs>
<filter id="filter0_f" x="-3.86621" y="-3.03613" width="94.2574" height="94.2893" filterUnits="userSpaceOnUse" color-interpolation-filters="sRGB">
<feFlood flood-opacity="0" result="BackgroundImageFix"/>
<feBlend mode="normal" in="SourceGraphic" in2="BackgroundImageFix" result="shape"/>
<feGaussianBlur stdDeviation="3" result="effect1_foregroundBlur"/>
</filter>
<linearGradient id="paint0_linear" x1="43.1932" y1="83.0677" x2="43.1932" y2="4.60125" gradientUnits="userSpaceOnUse">
<stop stop-color="#20B038"/>
<stop offset="1" stop-color="#60D66A"/>
</linearGradient>
<clipPath id="clip0">
<rect y="0.543457" width="85" height="85" fill="white"/>
</clipPath>
</defs>
</svg>
